<?xml version="1.0" encoding="UTF-8"?>
<svg version="1.1" xmlns="http://www.w3.org/2000/svg" width="626" height="501">
<path d="M0 0 C206.58 0 413.16 0 626 0 C626 165.33 626 330.66 626 501 C419.42 501 212.84 501 0 501 C0 335.67 0 170.34 0 0 Z " fill="#FEFEFE" transform="translate(0,0)"/>
<path d="M0 0 C0.74601471 -0.00199402 1.49202942 -0.00398804 2.26065063 -0.00604248 C23.12526458 0.00026458 23.12526458 0.00026458 26.5 3.375 C26.625 5.875 26.625 5.875 26.5 8.375 C24.7710587 10.1039413 22.38498558 9.64785336 20.0234375 9.76953125 C-12.57385694 11.65662161 -36.38337625 21.05937761 -59.125 45.125 C-78.28330356 67.08284439 -83.08704936 93.36776824 -81.79736328 121.74804688 C-80.59024215 136.47135681 -74.70452233 152.80674675 -65.76171875 164.68359375 C-64.5 166.375 -64.5 166.375 -64.5 168.375 C-53.67852694 165.16372142 -53.67852694 165.16372142 -43.125 161.1875 C-38.37001685 159.19008361 -33.57778008 158.19608784 -28.5 157.375 C-28.005 153.415 -28.005 153.415 -27.5 149.375 C-37.07 149.375 -46.64 149.375 -56.5 149.375 C-56.5 146.405 -56.5 143.435 -56.5 140.375 C-58.81 140.375 -61.12 140.375 -63.5 140.375 C-63.5 122.885 -63.5 105.395 -63.5 87.375 C-51.62 87.375 -39.74 87.375 -27.5 87.375 C-27.5 75.495 -27.5 63.615 -27.5 51.375 C-20.06587815 51.35191267 -12.63188318 51.33203881 -5.19775391 51.32006836 C-2.67431209 51.3150724 -0.15087312 51.30827337 2.37255859 51.29956055 C6.02181709 51.28728564 9.67103696 51.28172417 13.3203125 51.27734375 C14.42923859 51.27218246 15.53816467 51.26702118 16.68069458 51.26170349 C24.7109222 51.26114192 32.43803076 51.79914505 40.5 52.375 C40.5 63.925 40.5 75.475 40.5 87.375 C47.10966473 87.33599918 47.10966473 87.33599918 53.71923828 87.28491211 C61.41063569 87.26253241 68.7613932 87.82224237 76.5 88.375 C76.5 108.505 76.5 128.635 76.5 149.375 C64.62 149.375 52.74 149.375 40.5 149.375 C40.5 156.635 40.5 163.895 40.5 171.375 C42.35625 171.4575 44.2125 171.54 46.125 171.625 C52.0257056 172.09872843 55.28980527 173.16480527 59.5 177.375 C59.4375 180.6875 59.4375 180.6875 58.5 184.375 C55.4375 186.8125 55.4375 186.8125 52.5 188.375 C56.60636034 187.09939916 60.302784 185.56373018 64.09765625 183.546875 C65.14050781 182.99668701 66.18335938 182.44649902 67.2578125 181.87963867 C68.34835937 181.30060791 69.43890625 180.72157715 70.5625 180.125 C72.81291169 178.94751546 75.06420505 177.77171433 77.31640625 176.59765625 C78.92539795 175.75871826 78.92539795 175.75871826 80.56689453 174.90283203 C81.53481934 174.39864746 82.50274414 173.89446289 83.5 173.375 C84.25522949 172.98038574 85.01045898 172.58577148 85.78857422 172.17919922 C92.5329441 168.69332591 97.84035327 166.15918306 105.5 167.375 C108.0625 168.8125 108.0625 168.8125 109.5 171.375 C110.18879833 176.25026089 109.95405566 180.05586204 107.5 184.375 C106.84 184.375 106.18 184.375 105.5 184.375 C105.1596875 185.23158203 105.1596875 185.23158203 104.8125 186.10546875 C94.00242683 204.79788693 59.47260063 218.1476632 39.55810547 223.859375 C34.14816267 225.21474857 28.61921133 225.99438825 23.10546875 226.796875 C19.67635971 227.16183538 19.67635971 227.16183538 17.5 228.375 C-0.14988493 229.61761733 -17.6459273 229.08739462 -34.5 223.375 C-35.24878418 223.12331055 -35.99756836 222.87162109 -36.76904297 222.61230469 C-52.36356942 217.17593173 -66.21717029 208.36490026 -78.5 197.375 C-79.180625 196.776875 -79.86125 196.17875 -80.5625 195.5625 C-94.79661697 182.24671315 -103.65491791 164.73790647 -109.5 146.375 C-110.07814453 144.72951172 -110.07814453 144.72951172 -110.66796875 143.05078125 C-116.32075975 124.40306842 -115.39095781 102.15543107 -110.5 83.375 C-110.23316406 82.34503906 -109.96632812 81.31507813 -109.69140625 80.25390625 C-104.10577784 61.56066985 -92.68446544 43.7411309 -78.5 30.375 C-77.84 30.375 -77.18 30.375 -76.5 30.375 C-76.5 29.715 -76.5 29.055 -76.5 28.375 C-74.6627239 26.73304893 -72.83447304 25.23480422 -70.875 23.75 C-70.28960449 23.3055957 -69.70420898 22.86119141 -69.10107422 22.40332031 C-58.47623394 14.50605941 -47.01363887 8.64685311 -34.5 4.375 C-33.3346875 3.95992188 -32.169375 3.54484375 -30.96875 3.1171875 C-20.75745562 0.10021416 -10.56816921 0.00756099 0 0 Z " fill="#29368D" transform="translate(305.5,90.625)"/>
<path d="M0 0 C15.51 0 31.02 0 47 0 C47 12.21 47 24.42 47 37 C58.88 37 70.76 37 83 37 C83 52.18 83 67.36 83 83 C71.12 83 59.24 83 47 83 C47 91.25 47 99.5 47 108 C40 106 40 106 36.875 104.5625 C25.33714766 99.54163239 12.36728096 99.04807466 0 98 C0 93.05 0 88.1 0 83 C-11.88 83 -23.76 83 -36 83 C-36 67.49 -36 51.98 -36 36 C-24.12 36 -12.24 36 0 36 C0 24.12 0 12.24 0 0 Z " fill="#28A9E1" transform="translate(292,150)"/>
<path d="M0 0 C-0.71542969 0.32871094 -1.43085938 0.65742187 -2.16796875 0.99609375 C-9.38146058 4.43953293 -15.7152866 8.38307417 -22.1875 13.046875 C-24.42837668 14.60303936 -26.5238296 15.88096146 -29 17 C-29 17.66 -29 18.32 -29 19 C-29.94875 19.763125 -30.8975 20.52625 -31.875 21.3125 C-49.78683628 36.257123 -61.18264542 62.26641536 -64 85 C-66.40282106 112.49039164 -59.26018676 138.19742208 -44 161 C-43.34 161.99 -42.68 162.98 -42 164 C-34.73255044 163.51599977 -28.76163354 161.70084458 -22 159.0625 C-10.68286899 154.6935247 -1.37048121 152.66515045 10.8125 152.75 C11.91142578 152.74226562 13.01035156 152.73453125 14.14257812 152.7265625 C30.71623055 152.76562827 44.10139269 157.4177298 59.12109375 163.91796875 C64.89000565 166.28070398 70.85092616 167.12888121 77 168 C77 168.66 77 169.32 77 170 C65.74978949 174.73693074 54.80199005 173.70558258 43.2109375 170.671875 C36.21177974 169.20733104 28.959787 169.41357796 22 171 C22 172.65 22 174.3 22 176 C31.67582498 182.16211076 43.43718382 186.71284397 55 187 C56.06734375 187.05027344 57.1346875 187.10054687 58.234375 187.15234375 C78.85252742 187.71506625 95.93162929 177.45666744 113.58276367 167.86865234 C122.56489829 163 122.56489829 163 128 163 C126.94194072 171.18232509 119.60758337 175.65985436 113.4375 180.4375 C88.22785585 198.8380066 60.01126551 209.45869495 28.625 209.4375 C27.49999588 209.43760574 27.49999588 209.43760574 26.3522644 209.43771362 C-3.24450672 209.33100822 -29.0323656 199.04890304 -50.25 178.25 C-70.06295722 158.09213637 -81.46006449 131.70812378 -81.3125 103.3125 C-81.30686035 102.17055176 -81.3012207 101.02860352 -81.29541016 99.85205078 C-80.92762502 74.12529823 -71.43386741 50.01614911 -54 31 C-53.15695313 30.07574219 -52.31390625 29.15148437 -51.4453125 28.19921875 C-42.44775331 18.77134151 -14.76887396 -5.12666659 0 0 Z " fill="#F9F9FB" transform="translate(280,102)"/>
<path d="M0 0 C2.5625 1.4375 2.5625 1.4375 4 4 C4.68879833 8.87526089 4.45405566 12.68086204 2 17 C1.34 17 0.68 17 0 17 C-0.226875 17.57105469 -0.45375 18.14210938 -0.6875 18.73046875 C-11.35163055 37.17052783 -43.86809399 49.34427324 -63.328125 55.46875 C-66.01188875 56.00236384 -67.4574966 55.92014409 -70 55 C-69.01 55 -68.02 55 -67 55 C-67 54.34 -67 53.68 -67 53 C-67.99 52.505 -67.99 52.505 -69 52 C-67.68 51.34 -66.36 50.68 -65 50 C-65.33 49.34 -65.66 48.68 -66 48 C-65.30777344 47.79246094 -64.61554688 47.58492188 -63.90234375 47.37109375 C-46.25472297 41.81406955 -29.12061957 33.05166432 -15 21 C-13.66582031 19.88238281 -13.66582031 19.88238281 -12.3046875 18.7421875 C-6.47881274 13.71565447 -6.47881274 13.71565447 -3 7 C-13.3473725 10.67374517 -22.78199628 15.36370916 -32.41870117 20.56420898 C-43.96917519 26.7754996 -55.39512995 32.15467749 -68.75 32.125 C-69.89984375 32.12757813 -71.0496875 32.13015625 -72.234375 32.1328125 C-79.96415638 31.86018536 -86.79529541 30.73933364 -94.125 28.25 C-95.26388672 27.89035156 -95.26388672 27.89035156 -96.42578125 27.5234375 C-101.68844195 25.76619795 -105.72127505 23.55904454 -110 20 C-110.4375 17.1875 -110.4375 17.1875 -110 15 C-101.53780137 11.83455759 -93.29602363 12.24403701 -84.625 14.5 C-74.83910024 17.0058554 -65.64973871 16.83608174 -56 14 C-53.625 14.625 -53.625 14.625 -52 16 C-51.25 18.125 -51.25 18.125 -51 20 C-52.65 20.66 -54.3 21.32 -56 22 C-48.3936971 19.74834339 -41.72953542 16.42585824 -34.75 12.6875 C-32.52692311 11.51915462 -30.30297353 10.35246814 -28.078125 9.1875 C-27.02431641 8.63449219 -25.97050781 8.08148438 -24.88476562 7.51171875 C-8.0976201 -1.28533652 -8.0976201 -1.28533652 0 0 Z " fill="#2B388D" transform="translate(411,258)"/>
<path d="M0 0 C7.43412185 -0.02308733 14.86811682 -0.04296119 22.30224609 -0.05493164 C24.82568791 -0.0599276 27.34912688 -0.06672663 29.87255859 -0.07543945 C33.52181709 -0.08771436 37.17103696 -0.09327583 40.8203125 -0.09765625 C41.92923859 -0.10281754 43.03816467 -0.10797882 44.18069458 -0.11329651 C52.2109222 -0.11385808 59.93803076 0.42414505 68 1 C68 12.55 68 24.1 68 36 C74.60966473 35.96099918 74.60966473 35.96099918 81.21923828 35.90991211 C88.91063569 35.88753241 96.2613932 36.44724237 104 37 C103.67 56.8 103.34 76.6 103 97 C91.45 97 79.9 97 68 97 C68 96.67 68 96.34 68 96 C79.22 96 90.44 96 102 96 C102 77.52 102 59.04 102 40 C91.44 40 80.88 40 70 40 C70 40.66 70 41.32 70 42 C76.6 42 83.2 42 90 42 C90 42.99 90 43.98 90 45 C80.43 45 70.86 45 61 45 C61 32.79 61 20.58 61 8 C45.49 8 29.98 8 14 8 C14 7.67 14 7.34 14 7 C28.52 6.67 43.04 6.34 58 6 C58 5.34 58 4.68 58 4 C57.34 4 56.68 4 56 4 C56 3.34 56 2.68 56 2 C40.16 2 24.32 2 8 2 C8 13.88 8 25.76 8 38 C-3.88 38 -15.76 38 -28 38 C-28 57.47 -28 76.94 -28 97 C-18.76 97 -9.52 97 0 97 C0 97.33 0 97.66 0 98 C-9.57 98 -19.14 98 -29 98 C-29 95.03 -29 92.06 -29 89 C-31.31 89 -33.62 89 -36 89 C-36 71.51 -36 54.02 -36 36 C-24.12 36 -12.24 36 0 36 C0 24.12 0 12.24 0 0 Z " fill="#1C3E96" transform="translate(278,142)"/>
<path d="M0 0 C15.84 0 31.68 0 48 0 C48 0.66 48 1.32 48 2 C48.66 2 49.32 2 50 2 C50 2.66 50 3.32 50 4 C50.99 4.495 50.99 4.495 52 5 C36.82 5 21.64 5 6 5 C6 17.21 6 29.42 6 42 C-5.88 42 -17.76 42 -30 42 C-30 57.51 -30 73.02 -30 89 C-18.12 89 -6.24 89 6 89 C6 93.95 6 98.9 6 104 C9.96 104 13.92 104 18 104 C18 104.66 18 105.32 18 106 C14.06256167 106.05797565 10.12523281 106.09358789 6.1875 106.125 C5.06794922 106.14175781 3.94839844 106.15851563 2.79492188 106.17578125 C1.72177734 106.18222656 0.64863281 106.18867188 -0.45703125 106.1953125 C-1.9416687 106.21102295 -1.9416687 106.21102295 -3.45629883 106.22705078 C-6 106 -6 106 -9 104 C-8.67 101.03 -8.34 98.06 -8 95 C-17.24 95 -26.48 95 -36 95 C-36 75.53 -36 56.06 -36 36 C-24.12 36 -12.24 36 0 36 C0 24.12 0 12.24 0 0 Z " fill="#303591" transform="translate(286,144)"/>
<path d="M0 0 C10 0 10 0 12.62109375 2.1953125 C13.22050781 3.16210938 13.81992188 4.12890625 14.4375 5.125 C15.05496094 6.07632812 15.67242187 7.02765625 16.30859375 8.0078125 C17.97777217 10.96067778 19.51956195 13.94857723 21 17 C23.8599648 15.5700176 24.41988975 13.56974733 25.875 10.75 C26.41511719 9.75871094 26.95523438 8.76742188 27.51171875 7.74609375 C28.5806351 5.77378878 29.63786932 3.79513574 30.6875 1.8125 C33 0 33 0 44 0 C44 14.52 44 29.04 44 44 C40.7 44 37.4 44 34 44 C33.67 35.09 33.34 26.18 33 17 C29.83253899 21.92915202 29.83253899 21.92915202 26.68823242 26.87304688 C26.28967041 27.48212891 25.8911084 28.09121094 25.48046875 28.71875 C25.07723389 29.34716797 24.67399902 29.97558594 24.25854492 30.62304688 C23.8432251 31.07744141 23.42790527 31.53183594 23 32 C22.01 32 21.02 32 20 32 C18.28125 29.98828125 18.28125 29.98828125 16.5 27.3125 C15.9121875 26.44238281 15.324375 25.57226562 14.71875 24.67578125 C13.09556586 22.14877867 11.54524146 19.57540243 10 17 C9.67 25.91 9.34 34.82 9 44 C6.03 44 3.06 44 0 44 C0 29.48 0 14.96 0 0 Z " fill="#2EABE3" transform="translate(178,331)"/>
<path d="M0 0 C2.97 0 5.94 0 9 0 C9 15.18 9 30.36 9 46 C6.03 46 3.06 46 0 46 C0 44.68 0 43.36 0 42 C-0.66 42 -1.32 42 -2 42 C-2 42.66 -2 43.32 -2 44 C-6.48470774 46.98980516 -10.74521703 46.57968236 -16 46 C-20.37252654 44.1714889 -22.27045082 41.98943006 -24.375 37.875 C-26.59953769 32.15878291 -27.4416053 26.48584888 -25.046875 20.6953125 C-22.73728203 16.70468668 -20.44990799 13.58218951 -16 12 C-9.64995584 11.26528415 -6.65375547 11.60774672 -1 15 C-0.67 10.05 -0.34 5.1 0 0 Z " fill="#31ABE1" transform="translate(288,329)"/>
<path d="M0 0 C0 0.66 0 1.32 0 2 C0.66 2 1.32 2 2 2 C0.7251791 4.84383123 -0.45137078 7.13754018 -3 9 C-5.37067903 8.7629321 -7.09856979 7.95345315 -9.25 6.9375 C-12.91603321 5.68771595 -16.16735541 5.36381203 -20 6 C-23.57858038 8.17826632 -25.41140748 10.17198189 -27 14 C-27.75505119 19.48147553 -27.31202945 23.44595951 -24 28 C-24 28.66 -24 29.32 -24 30 C-19.85672976 32.0088583 -16.58461644 32.40215934 -12 32 C-8.8331162 30.62507196 -8.8331162 30.62507196 -6 29 C-3.625 28.3125 -3.625 28.3125 -2 28 C-0.68 29.65 0.64 31.3 2 33 C0.15346458 37.67123554 -2.74171589 38.95961289 -7.14453125 41.01171875 C-13.21675127 43.11332157 -19.32127812 43.05232622 -25.25 40.5 C-30.6293467 37.37865068 -34.57755758 32.72119419 -37.4375 27.25 C-38.95116366 18.50438774 -38.96009569 11.66245146 -33.8515625 4.1328125 C-24.5980266 -6.52632379 -11.81286608 -5.62996171 0 0 Z " fill="#2DABE3" transform="translate(356,334)"/>
<path d="M0 0 C3.66906111 2.42001903 4.88235449 4.79047055 5.9375 8.9375 C6.2853383 13.092495 6.2214161 17.20933022 6.125 21.375 C6.10469727 23.0446582 6.10469727 23.0446582 6.08398438 24.74804688 C6.04882997 27.47837212 5.99962106 30.20767744 5.9375 32.9375 C2.9675 32.9375 -0.0025 32.9375 -3.0625 32.9375 C-3.0625 31.9475 -3.0625 30.9575 -3.0625 29.9375 C-3.660625 30.4325 -4.25875 30.9275 -4.875 31.4375 C-9.56117132 33.64275709 -13.97090819 33.7784536 -19.0625 32.9375 C-21.95933868 30.7359026 -23.45547231 29.15155538 -25.0625 25.9375 C-25.47557941 21.29035663 -24.95696841 18.63044245 -22.0625 14.9375 C-18.1565695 11.50501562 -14.42881558 11.61377281 -9.46484375 11.63671875 C-6.93198878 11.95384043 -5.25725249 12.66525318 -3.0625 13.9375 C-4.18104586 10.21135847 -4.18104586 10.21135847 -7.0625 7.9375 C-9.2697923 7.86657158 -11.47917452 7.85334975 -13.6875 7.875 C-15.47027344 7.88853516 -15.47027344 7.88853516 -17.2890625 7.90234375 C-18.66191406 7.91974609 -18.66191406 7.91974609 -20.0625 7.9375 C-20.3925 5.6275 -20.7225 3.3175 -21.0625 0.9375 C-14.60147655 -2.03267745 -6.77368432 -2.33973744 0 0 Z " fill="#2DA9E0" transform="translate(385.0625,342.0625)"/>
<path d="M0 0 C3.97248885 2.59772095 6.2869473 5.51926528 7.77734375 10.078125 C7.77734375 13.048125 7.77734375 16.018125 7.77734375 19.078125 C0.18734375 19.078125 -7.40265625 19.078125 -15.22265625 19.078125 C-13.45414589 22.25886665 -13.45414589 22.25886665 -11.22265625 25.078125 C-6.29026463 25.32474458 -2.72403451 25.32881413 1.77734375 23.078125 C3.42734375 24.728125 5.07734375 26.378125 6.77734375 28.078125 C5.67666379 28.89534217 4.57164644 29.70671951 3.46484375 30.515625 C2.84996094 30.96808594 2.23507813 31.42054688 1.6015625 31.88671875 C-2.38582768 34.49090291 -6.61581851 34.65397972 -11.22265625 34.078125 C-17.42850099 32.18442973 -21.16200566 28.7396718 -24.22265625 23.078125 C-26.0031687 17.73658765 -25.92774748 13.00724111 -23.66015625 7.890625 C-18.65356726 -0.89256053 -9.60367872 -3.98324812 0 0 Z " fill="#30AADF" transform="translate(251.22265625,341.921875)"/>
<path d="M0 0 C6.97180979 6.29163323 6.97180979 6.29163323 7.5625 11.3125 C7.5625 13.6225 7.5625 15.9325 7.5625 18.3125 C-0.3575 18.3125 -8.2775 18.3125 -16.4375 18.3125 C-14.11498574 23.19745525 -14.11498574 23.19745525 -11.4375 24.3125 C-6.61137057 24.59093054 -2.93842174 24.06895727 1.5625 22.3125 C2.8825 23.9625 4.2025 25.6125 5.5625 27.3125 C-0.08762881 32.02094067 -3.61167247 33.78428174 -10.96875 33.6328125 C-16.28456583 32.94310222 -20.02588053 29.21149368 -23.4375 25.3125 C-26.48000612 20.38758002 -26.05216235 14.90442818 -25.4375 9.3125 C-23.6875 5.8125 -23.6875 5.8125 -21.4375 3.3125 C-20.756875 2.549375 -20.07625 1.78625 -19.375 1 C-14.26402292 -3.45149617 -5.74100543 -2.81831175 0 0 Z " fill="#28ABE0" transform="translate(443.4375,342.6875)"/>
<path d="M0 0 C17.82 0 35.64 0 54 0 C54 0.33 54 0.66 54 1 C38.49 1 22.98 1 7 1 C7 12.88 7 24.76 7 37 C-4.88 37 -16.76 37 -29 37 C-29 54.16 -29 71.32 -29 89 C-31.31 89 -33.62 89 -36 89 C-36 71.51 -36 54.02 -36 36 C-24.12 36 -12.24 36 0 36 C0 24.12 0 12.24 0 0 Z " fill="#2DA0E0" transform="translate(278,142)"/>
<path d="M0 0 C2.31 0 4.62 0 7 0 C7 15.18 7 30.36 7 46 C-4.88 46 -16.76 46 -29 46 C-29 54.25 -29 62.5 -29 71 C-36 69 -36 69 -37 68 C-37.08726223 66.21928754 -37.10699041 64.4351686 -37.09765625 62.65234375 C-37.09515869 61.68031006 -37.09266113 60.70827637 -37.09008789 59.70678711 C-37.08098389 58.46292236 -37.07187988 57.21905762 -37.0625 55.9375 C-37.041875 51.998125 -37.02125 48.05875 -37 44 C-24.79 44 -12.58 44 0 44 C0 29.48 0 14.96 0 0 Z " fill="#D4E6F9" transform="translate(368,187)"/>
<path d="M0 0 C2.97 0 5.94 0 9 0 C9 15.18 9 30.36 9 46 C6.03 46 3.06 46 0 46 C0 44.68 0 43.36 0 42 C-0.66 42 -1.32 42 -2 42 C-2 42.66 -2 43.32 -2 44 C-4.97 44.495 -4.97 44.495 -8 45 C-8 43.68 -8 42.36 -8 41 C-8.66 41 -9.32 41 -10 41 C-10 40.34 -10 39.68 -10 39 C-7.36 39 -4.72 39 -2 39 C-0.82185285 33.10926427 -0.06246406 26.81260782 -2 21 C-2.66 21 -3.32 21 -4 21 C-4 20.34 -4 19.68 -4 19 C-5.98 19 -7.96 19 -10 19 C-10 18.34 -10 17.68 -10 17 C-6.7 17 -3.4 17 0 17 C0 11.39 0 5.78 0 0 Z " fill="#29AAE2" transform="translate(288,329)"/>
<path d="M0 0 C3.3 0 6.6 0 10 0 C10.33 1.32 10.66 2.64 11 4 C11.53625 3.34 12.0725 2.68 12.625 2 C15 0 15 0 18.25 -0.25 C19.1575 -0.1675 20.065 -0.085 21 0 C21 3.3 21 6.6 21 10 C18.98177083 10.71614583 16.96354167 11.43229167 14.9453125 12.1484375 C12.81842006 12.93877783 12.81842006 12.93877783 11 15 C10.63105418 17.03060659 10.63105418 17.03060659 10.5859375 19.3515625 C10.52792969 20.62773437 10.52792969 20.62773437 10.46875 21.9296875 C10.42234375 23.26386719 10.42234375 23.26386719 10.375 24.625 C10.31699219 25.97078125 10.31699219 25.97078125 10.2578125 27.34375 C10.16341224 29.56215605 10.08061195 31.78105013 10 34 C6.7 34 3.4 34 0 34 C0 22.78 0 11.56 0 0 Z " fill="#25ABE5" transform="translate(396,341)"/>
<path d="M0 0 C10.56 0 21.12 0 32 0 C32 18.48 32 36.96 32 56 C30.68 56 29.36 56 28 56 C27.67 55.01 27.34 54.02 27 53 C15.45 52.67 3.9 52.34 -8 52 C-8 59.92 -8 67.84 -8 76 C-8.33 76 -8.66 76 -9 76 C-9 67.75 -9 59.5 -9 51 C2.88 51 14.76 51 27 51 C27 35.82 27 20.64 27 5 C24.69 5 22.38 5 20 5 C20 4.01 20 3.02 20 2 C13.4 2 6.8 2 0 2 C0 1.34 0 0.68 0 0 Z " fill="#2A3381" transform="translate(348,182)"/>
<path d="M0 0 C0.5053125 0.36738281 1.010625 0.73476563 1.53125 1.11328125 C0.5721875 1.73203125 0.5721875 1.73203125 -0.40625 2.36328125 C-2.7305667 4.33542876 -2.90192629 5.22546359 -3.46875 8.11328125 C-4.74492187 8.31824219 -6.02109375 8.52320313 -7.3359375 8.734375 C-9.00523621 9.0063394 -10.67450553 9.27848416 -12.34375 9.55078125 C-13.18550781 9.68548828 -14.02726562 9.82019531 -14.89453125 9.95898438 C-15.70019531 10.09111328 -16.50585938 10.22324219 -17.3359375 10.359375 C-18.07956543 10.47982178 -18.82319336 10.60026855 -19.58935547 10.72436523 C-21.54759647 11.0457523 -21.54759647 11.0457523 -23.46875 12.11328125 C-25.79291296 12.19914934 -28.11958307 12.22039168 -30.4453125 12.2109375 C-31.13056 12.20952255 -31.8158075 12.2081076 -32.52182007 12.20664978 C-34.71250761 12.201048 -36.9030933 12.18849531 -39.09375 12.17578125 C-40.57812352 12.17076647 -42.06249865 12.16620353 -43.546875 12.16210938 C-47.18753315 12.15107802 -50.82813164 12.13381224 -54.46875 12.11328125 C-54.46875 11.78328125 -54.46875 11.45328125 -54.46875 11.11328125 C-44.56875 10.61828125 -44.56875 10.61828125 -34.46875 10.11328125 C-36.03367187 10.05269531 -37.59859375 9.99210937 -39.2109375 9.9296875 C-41.25521819 9.84529059 -43.29948852 9.76064217 -45.34375 9.67578125 C-46.89255859 9.61680664 -46.89255859 9.61680664 -48.47265625 9.55664062 C-49.45878906 9.51474609 -50.44492187 9.47285156 -51.4609375 9.4296875 C-52.37214355 9.39302979 -53.28334961 9.35637207 -54.22216797 9.31860352 C-56.46875 9.11328125 -56.46875 9.11328125 -58.46875 8.11328125 C-58.13875 6.79328125 -57.80875 5.47328125 -57.46875 4.11328125 C-56.47770264 4.10393555 -55.48665527 4.09458984 -54.46557617 4.08496094 C-30.8825015 4.2173814 -30.8825015 4.2173814 -7.75073242 0.30957031 C-2.87880264 -1.03400032 -2.87880264 -1.03400032 0 0 Z " fill="#36418F" transform="translate(346.46875,306.88671875)"/>
<path d="M0 0 C3.3 0 6.6 0 10 0 C10 11.22 10 22.44 10 34 C6.7 34 3.4 34 0 34 C0 22.78 0 11.56 0 0 Z " fill="#55ADD7" transform="translate(303,341)"/>
<path d="M0 0 C0.66 0.66 1.32 1.32 2 2 C1.34 2 0.68 2 0 2 C0 2.66 0 3.32 0 4 C-1.32 4 -2.64 4 -4 4 C-4 4.66 -4 5.32 -4 6 C-2.2984375 5.9690625 -2.2984375 5.9690625 -0.5625 5.9375 C3 6 3 6 4 7 C4.04063832 8.66617115 4.042721 10.33388095 4 12 C2.02 12.99 2.02 12.99 0 14 C0 14.66 0 15.32 0 16 C-1.98 16 -3.96 16 -6 16 C-6 16.66 -6 17.32 -6 18 C-5.34 18 -4.68 18 -4 18 C-4 18.66 -4 19.32 -4 20 C-3.01 20.33 -2.02 20.66 -1 21 C-10.96651077 21.78545181 -10.96651077 21.78545181 -15.125 18.625 C-17.87738521 14.7716607 -18.37302819 12.75610946 -18 8 C-14.47207203 0.01574196 -8.06113476 -1.09859713 0 0 Z " fill="#31ABE0" transform="translate(378,354)"/>
<path d="M0 0 C1.98 0 3.96 0 6 0 C6 14.85 6 29.7 6 45 C4.02 45 2.04 45 0 45 C0 30.15 0 15.3 0 0 Z " fill="#FEFDFA" transform="translate(368,187)"/>
<path d="M0 0 C1.65 0 3.3 0 5 0 C5 16.83 5 33.66 5 51 C2.69 51 0.38 51 -2 51 C-1.01 50.505 -1.01 50.505 0 50 C0 33.5 0 17 0 0 Z " fill="#2A9EDB" transform="translate(244,180)"/>
<path d="M0 0 C2.17476401 1.54338091 2.81832637 2.63665273 4 5 C4.36744365 9.4828125 4.51708331 11.96583338 2.5 16 C-0.54102296 18.43281837 -2.28194447 18.6907131 -6.09375 18.40625 C-8 18 -8 18 -10.5 16.5625 C-12.69500566 12.81269867 -12.64340268 9.24945025 -12 5 C-9.68068971 -0.72768803 -5.78052054 -0.68702908 0 0 Z " fill="#F7FAF9" transform="translate(284,349)"/>
<path d="M0 0 C0.33 0.66 0.66 1.32 1 2 C1.66 2 2.32 2 3 2 C2.34 3.32 1.68 4.64 1 6 C0.67 5.67 0.34 5.34 0 5 C-0.33 5.99 -0.66 6.98 -1 8 C-0.62875 8.680625 -0.2575 9.36125 0.125 10.0625 C1.50610811 14.69907722 -0.39854529 18.56586464 -2 23 C-2.99 22.67 -3.98 22.34 -5 22 C-5 23.32 -5 24.64 -5 26 C-5.99 26 -6.98 26 -8 26 C-8.33 35.9 -8.66 45.8 -9 56 C-9.99 56.495 -9.99 56.495 -11 57 C-17.26100372 44.47799255 -11.02731936 22.60630574 -7 10 C-6.04858662 7.31052357 -5.03922881 4.65750007 -4 2 C-3.01 2.33 -2.02 2.66 -1 3 C-0.67 2.01 -0.34 1.02 0 0 Z " fill="#364188" transform="translate(227,156)"/>
<path d="M0 0 C10.7524465 -0.86096102 10.7524465 -0.86096102 14.5625 2.3125 C19.95722174 8.26052653 19 8.36534824 19 18 C11.74 18 4.48 18 -3 18 C-3 16.68 -3 15.36 -3 14 C1.62 14 6.24 14 11 14 C11 12.68 11 11.36 11 10 C10.34 10 9.68 10 9 10 C8.566875 9.525625 8.13375 9.05125 7.6875 8.5625 C5.55306267 6.58616914 3.83692053 6.38336764 1 6 C0.67 4.02 0.34 2.04 0 0 Z " fill="#20ABE6" transform="translate(431,342)"/>
<path d="M0 0 C1.32 0 2.64 0 4 0 C4 0.66 4 1.32 4 2 C4.61875 2.12375 5.2375 2.2475 5.875 2.375 C8 3 8 3 10 5 C14.94576735 5.32431261 18.49016424 5.25491788 23 3 C24.65 4.65 26.3 6.3 28 8 C26.89932004 8.81721717 25.79430269 9.62859451 24.6875 10.4375 C24.07261719 10.88996094 23.45773438 11.34242188 22.82421875 11.80859375 C18.83991971 14.41075908 14.60401374 14.58268267 10 14 C4.07866742 12.12616058 0.94516162 9.39946297 -2 4 C-1.34 4 -0.68 4 0 4 C0 2.68 0 1.36 0 0 Z " fill="#2DABE2" transform="translate(230,362)"/>
<path d="M0 0 C1.98 0 3.96 0 6 0 C6 8.91 6 17.82 6 27 C4.02 27 2.04 27 0 27 C0 18.09 0 9.18 0 0 Z " fill="#FCF9FA" transform="translate(332,151)"/>
<path d="M0 0 C0.99 0 1.98 0 3 0 C3.33 0.99 3.66 1.98 4 3 C4.66 2.67 5.32 2.34 6 2 C6.33 12.56 6.66 23.12 7 34 C6.34 32.68 5.68 31.36 5 30 C4.484375 29.34 3.96875 28.68 3.4375 28 C1.96806014 25.95556194 1.43835352 24.45477972 1 22 C0.34 22.99 -0.32 23.98 -1 25 C-1.02886984 21.02084841 -1.04675406 17.04172347 -1.0625 13.0625 C-1.07087891 11.92619141 -1.07925781 10.78988281 -1.08789062 9.61914062 C-1.09111328 8.53955078 -1.09433594 7.45996094 -1.09765625 6.34765625 C-1.10289307 5.34742432 -1.10812988 4.34719238 -1.11352539 3.31665039 C-1 1 -1 1 0 0 Z " fill="#252D85" transform="translate(193,190)"/>
<path d="M0 0 C3.31079119 1.07113833 4.00884235 2.01326353 6 5 C1.27450975 8.93790854 -1.8700665 11.28734289 -8.125 11.25 C-9.42824219 11.25773437 -9.42824219 11.25773437 -10.7578125 11.265625 C-13 11 -13 11 -15 9 C-15 7.68 -15 6.36 -15 5 C-15.66 5 -16.32 5 -17 5 C-17 4.34 -17 3.68 -17 3 C-16.10796875 2.95101563 -15.2159375 2.90203125 -14.296875 2.8515625 C-12.54117187 2.73941406 -12.54117187 2.73941406 -10.75 2.625 C-9.00976562 2.52058594 -9.00976562 2.52058594 -7.234375 2.4140625 C-4.25272511 2.0323537 -2.58975629 1.38948111 0 0 Z " fill="#30A8E0" transform="translate(443,365)"/>
<path d="M0 0 C1.75 2.75 1.75 2.75 1.75 13.75 C-5.51 13.75 -12.77 13.75 -20.25 13.75 C-20.25 12.43 -20.25 11.11 -20.25 9.75 C-15.63 9.75 -11.01 9.75 -6.25 9.75 C-6.25 8.43 -6.25 7.11 -6.25 5.75 C-5.59 5.75 -4.93 5.75 -4.25 5.75 C-4.25 4.43 -4.25 3.11 -4.25 1.75 C-4.91 1.75 -5.57 1.75 -6.25 1.75 C-6.25 1.09 -6.25 0.43 -6.25 -0.25 C-3.527085 -1.41696357 -2.63446281 -1.46359045 0 0 Z " fill="#22ABE4" transform="translate(256.25,346.25)"/>
<path d="M0 0 C0.66 0 1.32 0 2 0 C2.33 0.66 2.66 1.32 3 2 C4.32 2 5.64 2 7 2 C7.33 2.99 7.66 3.98 8 5 C8.66 4.34 9.32 3.68 10 3 C13.125 3.375 13.125 3.375 16 4 C16.33 5.65 16.66 7.3 17 9 C14.36 9 11.72 9 9 9 C9.33 9.66 9.66 10.32 10 11 C13.02934491 11.65772428 13.02934491 11.65772428 16 12 C15.34 12.66 14.68 13.32 14 14 C11.66055264 13.71269945 9.3260857 13.38063221 7 13 C6.67 13.33 6.34 13.66 6 14 C3.5 14.125 3.5 14.125 1 14 C-0.63717481 12.36282519 -0.39672144 10.37517442 -0.625 8.125 C-0.72039062 7.24070312 -0.81578125 6.35640625 -0.9140625 5.4453125 C-1 3 -1 3 0 0 Z " fill="#FAF7F7" transform="translate(249,383)"/>
<path d="M0 0 C11.88 0 23.76 0 36 0 C36 0.33 36 0.66 36 1 C24.78 1.33 13.56 1.66 2 2 C2 18.5 2 35 2 52 C1.34 52 0.68 52 0 52 C0 34.84 0 17.68 0 0 Z " fill="#12A8E9" transform="translate(242,178)"/>
<path d="M0 0 C0.33 0.66 0.66 1.32 1 2 C1.66 2 2.32 2 3 2 C3 2.66 3 3.32 3 4 C14.88 4 26.76 4 39 4 C39 4.33 39 4.66 39 5 C28.33558287 6.2138361 17.71729679 6.09531193 7 6 C7 6.66 7 7.32 7 8 C13.6 8 20.2 8 27 8 C27 8.66 27 9.32 27 10 C18.09 10 9.18 10 0 10 C0 6.7 0 3.4 0 0 Z " fill="#302F90" transform="translate(341,176)"/>
<path d="M0 0 C2.64 0 5.28 0 8 0 C8 10.56 8 21.12 8 32 C7.34 32 6.68 32 6 32 C6 22.1 6 12.2 6 2 C4.68 2 3.36 2 2 2 C2 11.9 2 21.8 2 32 C1.34 32 0.68 32 0 32 C0 21.44 0 10.88 0 0 Z " fill="#11AEEB" transform="translate(304,342)"/>
<path d="M0 0 C3.625 0.375 3.625 0.375 7 1 C7 1.66 7 2.32 7 3 C7.66 3 8.32 3 9 3 C9 4.98 9 6.96 9 9 C6.36609075 10.72217143 5.07588583 11.00455315 1.875 10.8125 C-1 10 -1 10 -3 7 C-2.6758631 3.67759676 -2.39223697 2.39223697 0 0 Z " fill="#B5B9CD" transform="translate(310,386)"/>
<path d="M0 0 C7.92 0 15.84 0 24 0 C24 0.33 24 0.66 24 1 C21.03 1 18.06 1 15 1 C15 1.66 15 2.32 15 3 C15.99 3.33 16.98 3.66 18 4 C13.48732759 6.64156434 10.23369912 7.76126533 5 7 C2.0625 4.625 2.0625 4.625 0 2 C0 1.34 0 0.68 0 0 Z " fill="#DDF3F9" transform="translate(427,361)"/>
<path d="M0 0 C3.3 0 6.6 0 10 0 C12 4 12 4 12 7 C10.68 7 9.36 7 8 7 C8 5.02 8 3.04 8 1 C6.02 1 4.04 1 2 1 C2 11.56 2 22.12 2 33 C4.64 33 7.28 33 10 33 C10 33.33 10 33.66 10 34 C6.7 34 3.4 34 0 34 C0 22.78 0 11.56 0 0 Z " fill="#4BB4E4" transform="translate(396,341)"/>
<path d="M0 0 C7 0 7 0 9 1 C9 1.66 9 2.32 9 3 C9.66 3 10.32 3 11 3 C11 4.32 11 5.64 11 7 C10.34 7 9.68 7 9 7 C9 7.66 9 8.32 9 9 C6.29120665 10.35439668 3.99066732 10.06501451 1 10 C1 11.65 1 13.3 1 15 C0.67 15 0.34 15 0 15 C0 10.05 0 5.1 0 0 Z " fill="#969BBD" transform="translate(214,382)"/>
<path d="M0 0 C2.875 0.6875 2.875 0.6875 3.875 1.6875 C4.125 5.125 4.125 5.125 3.875 8.6875 C0.65126323 10.83665785 -0.39203674 11.07036803 -4.125 10.6875 C-6.125 8.6875 -6.125 8.6875 -6.4375 5.1875 C-6.334375 4.0325 -6.23125 2.8775 -6.125 1.6875 C-3.125 -0.3125 -3.125 -0.3125 0 0 Z " fill="#A3A4BC" transform="translate(241.125,386.3125)"/>
<path d="M0 0 C0.80308594 0.01417969 1.60617187 0.02835937 2.43359375 0.04296875 C3.64208984 0.05263672 3.64208984 0.05263672 4.875 0.0625 C6.87109375 0.23046875 6.87109375 0.23046875 7.87109375 1.23046875 C8.18359375 3.60546875 8.18359375 3.60546875 7.87109375 6.23046875 C5.55109223 8.81816275 4.22314413 9.20230472 0.74609375 9.48046875 C-2.12890625 9.23046875 -2.12890625 9.23046875 -4.12890625 8.23046875 C-4.25390625 5.35546875 -4.25390625 5.35546875 -4.12890625 2.23046875 C-2.12890625 0.23046875 -2.12890625 0.23046875 0 0 Z " fill="#F2F6F5" transform="translate(374.12890625,359.76953125)"/>
<path d="M0 0 C1.0725 0.2475 2.145 0.495 3.25 0.75 C3.58 1.74 3.91 2.73 4.25 3.75 C4.91 3.75 5.57 3.75 6.25 3.75 C6.25 5.07 6.25 6.39 6.25 7.75 C1.3 7.75 -3.65 7.75 -8.75 7.75 C-7.35700412 2.17801649 -6.05127248 -0.40341817 0 0 Z " fill="#E3EDEF" transform="translate(435.75,348.25)"/>
<path d="M0 0 C2.375 1.75 2.375 1.75 4 4 C4 5.32 4 6.64 4 8 C-0.62 8 -5.24 8 -10 8 C-9 3 -9 3 -7.8125 1.1875 C-5.06937448 -0.60972017 -3.20418874 -0.45774125 0 0 Z " fill="#E5ECEB" transform="translate(246,348)"/>
<path d="M0 0 C0 10.89 0 21.78 0 33 C-2.8187091 30.1812909 -2.95639769 28.09108932 -3.11352539 24.15917969 C-3.10567017 22.55671387 -3.10567017 22.55671387 -3.09765625 20.921875 C-3.09443359 19.76171875 -3.09121094 18.6015625 -3.08789062 17.40625 C-3.07951172 16.1996875 -3.07113281 14.993125 -3.0625 13.75 C-3.05798828 12.52796875 -3.05347656 11.3059375 -3.04882812 10.046875 C-3.03704815 7.03120054 -3.02059853 4.01562502 -3 1 C-1 0 -1 0 0 0 Z " fill="#EEEDFB" transform="translate(202,191)"/>
<path d="M0 0 C1.33078101 6.41194487 1.33078101 6.41194487 -0.125 9 C-2 10 -2 10 -4.5625 9.8125 C-7 9 -7 9 -9 7 C-8.75 3.4375 -8.75 3.4375 -8 0 C-5.13822943 -1.43088528 -3.06624227 -0.59991697 0 0 Z " fill="#45548A" transform="translate(373,387)"/>
<path d="M0 0 C3.3 0 6.6 0 10 0 C10 2.64 10 5.28 10 8 C6.7 8 3.4 8 0 8 C0 5.36 0 2.72 0 0 Z " fill="#3AA9D8" transform="translate(303,329)"/>
<path d="M0 0 C1 2 1 2 1 5 C1.99 6.485 1.99 6.485 3 8 C2.70700812 12.98086192 0.08669766 17.54514313 -2 22 C-2.66 21.67 -3.32 21.34 -4 21 C-4 20.34 -4 19.68 -4 19 C-3.34 19 -2.68 19 -2 19 C-1.67 17.68 -1.34 16.36 -1 15 C-1.99 15 -2.98 15 -4 15 C-4 14.01 -4 13.02 -4 12 C-4.66 12.66 -5.32 13.32 -6 14 C-5.41892368 10.2397015 -4.34800504 7.46964968 -2.4375 4.1875 C-1.98246094 3.39730469 -1.52742187 2.60710937 -1.05859375 1.79296875 C-0.53458984 0.90544922 -0.53458984 0.90544922 0 0 Z " fill="#243089" transform="translate(207,147)"/>
<path d="M0 0 C1.32 0 2.64 0 4 0 C4 0.66 4 1.32 4 2 C3.34 2 2.68 2 2 2 C2 13.22 2 24.44 2 36 C1.34 36 0.68 36 0 36 C0 24.12 0 12.24 0 0 Z " fill="#10ADEB" transform="translate(278,142)"/>
<path d="M0 0 C0.66 0 1.32 0 2 0 C2 4.95 2 9.9 2 15 C1.01 15 0.02 15 -1 15 C-1 13.02 -1 11.04 -1 9 C-3.31 9 -5.62 9 -8 9 C-8 10.98 -8 12.96 -8 15 C-8.66 15 -9.32 15 -10 15 C-10 10.38 -10 5.76 -10 1 C-9.67 1 -9.34 1 -9 1 C-9 2.98 -9 4.96 -9 7 C-6.03 7 -3.06 7 0 7 C0 4.69 0 2.38 0 0 Z " fill="#6C6D90" transform="translate(359,382)"/>
<path d="M0 0 C0.33 0 0.66 0 1 0 C1 2.31 1 4.62 1 7 C-6.92 7 -14.84 7 -23 7 C-20.44464865 11.71704177 -20.44464865 11.71704177 -18 14 C-19.98 14 -21.96 14 -24 14 C-24 14.66 -24 15.32 -24 16 C-23.34 16 -22.68 16 -22 16 C-22 17.32 -22 18.64 -22 20 C-23.32 19.34 -24.64 18.68 -26 18 C-26 16.02 -26 14.04 -26 12 C-25.34 12 -24.68 12 -24 12 C-24 10.02 -24 8.04 -24 6 C-16.08 6 -8.16 6 0 6 C0 4.02 0 2.04 0 0 Z " fill="#41A4D4" transform="translate(450,354)"/>
<path d="M0 0 C2.33944736 0.28730055 4.6739143 0.61936779 7 1 C7 4.3 7 7.6 7 11 C3.625 11.125 3.625 11.125 0 11 C-0.66 10.34 -1.32 9.68 -2 9 C-2 7 -2 7 -1 5 C2.0625 3.75 2.0625 3.75 5 3 C4.071875 2.7834375 4.071875 2.7834375 3.125 2.5625 C1 2 1 2 -1 1 C-0.67 0.67 -0.34 0.34 0 0 Z " fill="#455180" transform="translate(378,386)"/>
<path d="M0 0 C0.33 1.65 0.66 3.3 1 5 C-1.64 5 -4.28 5 -7 5 C-6.67 5.66 -6.34 6.32 -6 7 C-2.97065509 7.65772428 -2.97065509 7.65772428 0 8 C-0.66 8.66 -1.32 9.32 -2 10 C-5.29714793 9.67028521 -6.6226839 9.3773161 -9 7 C-9.3633156 4.16613833 -9.3568671 2.59477849 -7.875 0.125 C-5.07848948 -1.55290631 -3.06309468 -0.74875648 0 0 Z " fill="#4C5A8E" transform="translate(265,387)"/>
<path d="M0 0 C0.33 0.66 0.66 1.32 1 2 C1.66 2 2.32 2 3 2 C2.34 3.32 1.68 4.64 1 6 C0.67 5.67 0.34 5.34 0 5 C-1.2077558 8.62326739 -0.54311128 9.64146369 1 13 C0.34 12.67 -0.32 12.34 -1 12 C-1.33 13.98 -1.66 15.96 -2 18 C-2.33 17.34 -2.66 16.68 -3 16 C-3.99 15.67 -4.98 15.34 -6 15 C-5.34 10.71 -4.68 6.42 -4 2 C-3.01 2.33 -2.02 2.66 -1 3 C-0.67 2.01 -0.34 1.02 0 0 Z " fill="#303C96" transform="translate(227,156)"/>
<path d="M0 0 C0.66 0 1.32 0 2 0 C2 0.66 2 1.32 2 2 C2.66 2 3.32 2 4 2 C4.33 2.99 4.66 3.98 5 5 C3.88121617 6.17262904 2.75476949 7.33795138 1.625 8.5 C0.99851563 9.1496875 0.37203125 9.799375 -0.2734375 10.46875 C-2 12 -2 12 -4 12 C-4.66 9.36 -5.32 6.72 -6 4 C-5.195625 3.525625 -4.39125 3.05125 -3.5625 2.5625 C-1.15246512 1.23099846 -1.15246512 1.23099846 0 0 Z " fill="#2F3B96" transform="translate(228,122)"/>
<path d="M0 0 C2.02104507 2.69472676 2.01764832 3.8470479 1.625 7.25 C1.41875 8.1575 1.2125 9.065 1 10 C0.67 10 0.34 10 0 10 C-0.33 7.36 -0.66 4.72 -1 2 C-1.66 2.66 -2.32 3.32 -3 4 C-6.125 4.125 -6.125 4.125 -9 4 C-9.33 4.99 -9.66 5.98 -10 7 C-10.66 7 -11.32 7 -12 7 C-11.45276317 3.62537285 -10.9451 1.91765 -9 -1 C-5.34463575 -2.25051935 -3.1641061 -2.29124924 0 0 Z " fill="#313D91" transform="translate(413,260)"/>
<path d="M0 0 C5.28 0 10.56 0 16 0 C16 0.66 16 1.32 16 2 C12.78817851 3.90608098 10.46117397 4.22266247 6.75 4.125 C5.85796875 4.10695313 4.9659375 4.08890625 4.046875 4.0703125 C3.03367187 4.03550781 3.03367187 4.03550781 2 4 C1.34 2.68 0.68 1.36 0 0 Z " fill="#3CB3E4" transform="translate(428,372)"/>
<path d="M0 0 C2.31 0 4.62 0 7 0 C7.04241723 2.33294775 7.04092937 4.66702567 7 7 C6 8 6 8 2.9375 8.0625 C1.968125 8.041875 0.99875 8.02125 0 8 C0 5.36 0 2.72 0 0 Z " fill="#19AEE2" transform="translate(278,240)"/>
<path d="M0 0 C2.64 0.33 5.28 0.66 8 1 C8 2.32 8 3.64 8 5 C6.06767179 5.86580287 4.12892806 6.71729941 2.1875 7.5625 C1.10855469 8.03816406 0.02960938 8.51382812 -1.08203125 9.00390625 C-4 10 -4 10 -7 9 C-6.67 8.34 -6.34 7.68 -6 7 C-5.175 6.731875 -4.35 6.46375 -3.5 6.1875 C-2.675 5.795625 -1.85 5.40375 -1 5 C-0.10613836 2.45224694 -0.10613836 2.45224694 0 0 Z " fill="#27368C" transform="translate(260,253)"/>
<path d="M0 0 C0.886875 -0.01417969 1.77375 -0.02835937 2.6875 -0.04296875 C5 0.1875 5 0.1875 7 2.1875 C6.34 2.1875 5.68 2.1875 5 2.1875 C5 2.8475 5 3.5075 5 4.1875 C3.68 4.1875 2.36 4.1875 1 4.1875 C1 4.8475 1 5.5075 1 6.1875 C0.34 6.1875 -0.32 6.1875 -1 6.1875 C-1 5.5275 -1 4.8675 -1 4.1875 C-2.98 4.1875 -4.96 4.1875 -7 4.1875 C-7 3.1975 -7 2.2075 -7 1.1875 C-4.52224905 -0.05137548 -2.76346293 0.02008331 0 0 Z " fill="#43B2E4" transform="translate(373,353.8125)"/>
<path d="M0 0 C0.33 0.99 0.66 1.98 1 3 C0.67 3.66 0.34 4.32 0 5 C0.99 5 1.98 5 3 5 C2.67 6.32 2.34 7.64 2 9 C1.34 9 0.68 9 0 9 C0.66 10.32 1.32 11.64 2 13 C1.34 13 0.68 13 0 13 C-0.33 13.66 -0.66 14.32 -1 15 C-1.33 13.35 -1.66 11.7 -2 10 C-2.66 10.66 -3.32 11.32 -4 12 C-4.93065133 9.39417629 -5.14917407 8.35801776 -4.0625 5.75 C-3.5365625 4.88375 -3.5365625 4.88375 -3 4 C-2.34 4 -1.68 4 -1 4 C-0.67 2.68 -0.34 1.36 0 0 Z " fill="#2F3B98" transform="translate(203,157)"/>
<path d="M0 0 C0.66 0.33 1.32 0.66 2 1 C2.625 4.0625 2.625 4.0625 3 7 C2.34 6.34 1.68 5.68 1 5 C0.67 8.3 0.34 11.6 0 15 C-2.41316065 11.78245247 -3.8515438 9.73248265 -5 6 C-4.67 5.01 -4.34 4.02 -4 3 C-3.67 3.33 -3.34 3.66 -3 4 C-2.67 3.34 -2.34 2.68 -2 2 C-1.34 2 -0.68 2 0 2 C0 1.34 0 0.68 0 0 Z " fill="#283087" transform="translate(204,240)"/>
<path d="M0 0 C0.02712325 2.87506421 0.04689851 5.74986908 0.0625 8.625 C0.07087891 9.43324219 0.07925781 10.24148437 0.08789062 11.07421875 C0.1058955 15.50341918 -0.10377338 19.63883424 -1 24 C-2.72206188 21.00873681 -3.24179923 18.89314287 -3.1953125 15.453125 C-3.18886719 14.60878906 -3.18242187 13.76445312 -3.17578125 12.89453125 C-3.15902344 12.02183594 -3.14226562 11.14914063 -3.125 10.25 C-3.11597656 9.36183594 -3.10695312 8.47367188 -3.09765625 7.55859375 C-3.07414577 5.37211942 -3.04128499 3.18619906 -3 1 C-1 0 -1 0 0 0 Z " fill="#485098" transform="translate(223,192)"/>
<path d="M0 0 C0.98484375 0.01804687 1.9696875 0.03609375 2.984375 0.0546875 C4.10585938 0.08949219 4.10585938 0.08949219 5.25 0.125 C5.25 0.455 5.25 0.785 5.25 1.125 C2.28 1.125 -0.69 1.125 -3.75 1.125 C-3.42 3.435 -3.09 5.745 -2.75 8.125 C-4.07 7.795 -5.39 7.465 -6.75 7.125 C-6.75 6.465 -6.75 5.805 -6.75 5.125 C-7.41 5.125 -8.07 5.125 -8.75 5.125 C-9.08 4.135 -9.41 3.145 -9.75 2.125 C-6.40060119 0.09941119 -3.88037449 -0.09238987 0 0 Z " fill="#3BA8D7" transform="translate(434.75,340.875)"/>
<path d="M0 0 C0.66 0 1.32 0 2 0 C1.67 10.23 1.34 20.46 1 31 C0.67 31 0.34 31 0 31 C-0.16727437 26.74607233 -0.32786758 22.49196191 -0.48217773 18.23754883 C-0.53566237 16.78923699 -0.59099659 15.34099225 -0.64819336 13.89282227 C-0.72992512 11.81541418 -0.80507768 9.7378583 -0.87890625 7.66015625 C-0.9260376 6.40855713 -0.97316895 5.15695801 -1.02172852 3.86743164 C-1 1 -1 1 0 0 Z " fill="#333F9E" transform="translate(217,181)"/>
<path d="M0 0 C0.33 0 0.66 0 1 0 C1.02578125 0.58007812 1.0515625 1.16015625 1.078125 1.7578125 C1.47845319 7.27142342 2.51231951 10.53140938 6 15 C6.33 15.66 6.66 16.32 7 17 C5.68 17 4.36 17 3 17 C3 16.34 3 15.68 3 15 C2.34 15 1.68 15 1 15 C1 14.34 1 13.68 1 13 C0.34 13 -0.32 13 -1 13 C-1.07654536 8.48382401 -1.10228696 4.40914783 0 0 Z " fill="#EFF4F1" transform="translate(417,355)"/>
<path d="M0 0 C0.66 0 1.32 0 2 0 C2 0.99 2 1.98 2 3 C2.99 3 3.98 3 5 3 C5 3.66 5 4.32 5 5 C4.01 5 3.02 5 2 5 C2 7.31 2 9.62 2 12 C2.99 12 3.98 12 5 12 C5 12.66 5 13.32 5 14 C3.35 13.67 1.7 13.34 0 13 C-0.19551338 11.39679026 -0.38111983 9.79237014 -0.5625 8.1875 C-0.71912109 6.84751953 -0.71912109 6.84751953 -0.87890625 5.48046875 C-1 3 -1 3 0 0 Z " fill="#777FA2" transform="translate(249,383)"/>
<path d="M0 0 C4.62 0 9.24 0 14 0 C14 0.66 14 1.32 14 2 C12.02 2 10.04 2 8 2 C8 2.66 8 3.32 8 4 C6.02 4 4.04 4 2 4 C2 3.34 2 2.68 2 2 C1.34 2 0.68 2 0 2 C0 1.34 0 0.68 0 0 Z " fill="#20AAE9" transform="translate(426,368)"/>
<path d="M0 0 C-1.91149668 1.0098473 -3.82941569 2.00754495 -5.75 3 C-6.81734375 3.556875 -7.8846875 4.11375 -8.984375 4.6875 C-12 6 -12 6 -16 6 C-16.33 5.34 -16.66 4.68 -17 4 C-14.92227529 3.13227971 -12.83756823 2.28126381 -10.75 1.4375 C-9.58984375 0.96183594 -8.4296875 0.48617187 -7.234375 -0.00390625 C-4.13733356 -0.95770524 -2.92678299 -1.20983356 0 0 Z " fill="#C7C9DA" transform="translate(280,102)"/>
<path d="M0 0 C0.53625 0.226875 1.0725 0.45375 1.625 0.6875 C1.625 1.3475 1.625 2.0075 1.625 2.6875 C-0.125 3.9765625 -0.125 3.9765625 -2.375 5.3125 C-3.1175 5.75851563 -3.86 6.20453125 -4.625 6.6640625 C-5.2025 7.00179687 -5.78 7.33953125 -6.375 7.6875 C-7.035 6.0375 -7.695 4.3875 -8.375 2.6875 C-2.95961538 -0.38942308 -2.95961538 -0.38942308 0 0 Z " fill="#EAEAEF" transform="translate(263.375,107.3125)"/>
<path d="M0 0 C1.89353366 1.89353366 3.4198632 3.84526801 5 6 C3.68 6.99 2.36 7.98 1 9 C1 8.01 1 7.02 1 6 C-0.98 6.33 -2.96 6.66 -5 7 C-3.70700306 4.11562221 -2.34058637 2.12780579 0 0 Z " fill="#253088" transform="translate(243,128)"/>
<path d="M0 0 C0.66 0 1.32 0 2 0 C2 0.99 2 1.98 2 3 C2.99 3.33 3.98 3.66 5 4 C4.01 4 3.02 4 2 4 C2 6.64 2 9.28 2 12 C2.99 12 3.98 12 5 12 C5 12.66 5 13.32 5 14 C3.35 13.67 1.7 13.34 0 13 C-0.19551338 11.39679026 -0.38111983 9.79237014 -0.5625 8.1875 C-0.71912109 6.84751953 -0.71912109 6.84751953 -0.87890625 5.48046875 C-1 3 -1 3 0 0 Z " fill="#5C658B" transform="translate(281,383)"/>
<path d="M0 0 C1.98 0 3.96 0 6 0 C6 3.3 6 6.6 6 10 C4.02 10.33 2.04 10.66 0 11 C0.33 10.34 0.66 9.68 1 9 C2.32 9 3.64 9 5 9 C5 6.36 5 3.72 5 1 C4.34 1 3.68 1 3 1 C3 2.98 3 4.96 3 7 C2.34 7 1.68 7 1 7 C1 6.34 1 5.68 1 5 C0.34 5 -0.32 5 -1 5 C-1 4.34 -1 3.68 -1 3 C-0.34 3 0.32 3 1 3 C0.67 2.01 0.34 1.02 0 0 Z " fill="#6AB3DA" transform="translate(411,341)"/>
<path d="M0 0 C0.66 0.33 1.32 0.66 2 1 C1.34 1.66 0.68 2.32 0 3 C-0.99 3 -1.98 3 -3 3 C-3 3.99 -3 4.98 -3 6 C-2.34 6 -1.68 6 -1 6 C-0.67 6.99 -0.34 7.98 0 9 C-1.65 9.33 -3.3 9.66 -5 10 C-5 8.68 -5 7.36 -5 6 C-5.99 5.67 -6.98 5.34 -8 5 C-6.71475739 4.13619741 -5.42157581 3.28419631 -4.125 2.4375 C-3.04605469 1.72400391 -3.04605469 1.72400391 -1.9453125 0.99609375 C-1.30335938 0.66738281 -0.66140625 0.33867187 0 0 Z " fill="#233184" transform="translate(385,266)"/>
<path d="M0 0 C0.99 0.33 1.98 0.66 3 1 C4.23828125 3.8359375 4.23828125 3.8359375 5.3125 7.375 C5.67988281 8.53773438 6.04726562 9.70046875 6.42578125 10.8984375 C7 14 7 14 5 17 C3.03177114 15.03177114 3.33751619 11.65191291 3 9 C2.01 9.33 1.02 9.66 0 10 C0.50603992 7.83125748 0.99983813 6.00032373 2 4 C1.34 4 0.68 4 0 4 C0 2.68 0 1.36 0 0 Z " fill="#373D90" transform="translate(224,226)"/>
<path d="M0 0 C0.33 0 0.66 0 1 0 C1 9.57 1 19.14 1 29 C0.67 29 0.34 29 0 29 C0 21.08 0 13.16 0 5 C-0.99 4.67 -1.98 4.34 -3 4 C-2.02727325 2.64664105 -1.0260734 1.31337396 0 0 Z " fill="#F4F3F3" transform="translate(211,347)"/>
<path d="M0 0 C9.57 0.33 19.14 0.66 29 1 C29 1.33 29 1.66 29 2 C24.91784969 2.25502274 20.83454309 2.47452986 16.75 2.6875 C15.59113281 2.76033203 14.43226563 2.83316406 13.23828125 2.90820312 C11.56572266 2.99038086 11.56572266 2.99038086 9.859375 3.07421875 C8.83295898 3.13182373 7.80654297 3.18942871 6.74902344 3.2487793 C4 3 4 3 0 0 Z " fill="#374696" transform="translate(288,91)"/>
<path d="M0 0 C3.65316671 1.24976756 4.78065836 1.67098753 7 5 C5.02 6.32 3.04 7.64 1 9 C1 7.68 1 6.36 1 5 C1.66 5 2.32 5 3 5 C3 4.34 3 3.68 3 3 C1.02 3 -0.96 3 -3 3 C-2.01 2.01 -1.02 1.02 0 0 Z " fill="#3AAEDC" transform="translate(251,365)"/>
<path d="M0 0 C-0.99 0.66 -1.98 1.32 -3 2 C-2.67 2.99 -2.34 3.98 -2 5 C-3.65 5.33 -5.3 5.66 -7 6 C-6.67 5.01 -6.34 4.02 -6 3 C-7.32 2.67 -8.64 2.34 -10 2 C-9 0 -9 0 -7.25 -0.6875 C-4.60760177 -1.05449975 -2.57327078 -0.64331769 0 0 Z " fill="#303E95" transform="translate(280,95)"/>
<path d="M0 0 C1.93742341 -0.02703381 3.87495479 -0.04641125 5.8125 -0.0625 C6.89144531 -0.07410156 7.97039062 -0.08570313 9.08203125 -0.09765625 C12 0 12 0 15 1 C15 1.66 15 2.32 15 3 C11.7 3 8.4 3 5 3 C5 2.34 5 1.68 5 1 C3.35 1 1.7 1 0 1 C0 0.67 0 0.34 0 0 Z " fill="#3EA9DF" transform="translate(369,341)"/>
<path d="M0 0 C1.32 0.66 2.64 1.32 4 2 C4 2.99 4 3.98 4 5 C3.34 5 2.68 5 2 5 C1.34 6.32 0.68 7.64 0 9 C-2 6 -2 6 -1.6875 3.375 C-1 1 -1 1 0 0 Z " fill="#313C94" transform="translate(230,245)"/>
<path d="M0 0 C2.64 0 5.28 0 8 0 C7.67 1.32 7.34 2.64 7 4 C5.02 4.33 3.04 4.66 1 5 C0.67 3.35 0.34 1.7 0 0 Z " fill="#B2B6C5" transform="translate(366,392)"/>
<path d="M0 0 C1.32 0 2.64 0 4 0 C4 0.66 4 1.32 4 2 C3.01 2 2.02 2 1 2 C0.67 3.32 0.34 4.64 0 6 C-1.32 6 -2.64 6 -4 6 C-4 5.34 -4 4.68 -4 4 C-4.66 4 -5.32 4 -6 4 C-6 3.34 -6 2.68 -6 2 C-4.02 2 -2.04 2 0 2 C0 1.34 0 0.68 0 0 Z " fill="#1CB0E6" transform="translate(378,368)"/>
<path d="M0 0 C1.32 0.66 2.64 1.32 4 2 C0.62830008 4.83222793 -2.85888893 6.52103176 -7 8 C-9.21875 7.578125 -9.21875 7.578125 -11 7 C-10.28972656 6.66226562 -9.57945312 6.32453125 -8.84765625 5.9765625 C-7.92855469 5.53054688 -7.00945312 5.08453125 -6.0625 4.625 C-4.68771484 3.96371094 -4.68771484 3.96371094 -3.28515625 3.2890625 C-0.87096198 2.20800838 -0.87096198 2.20800838 0 0 Z " fill="#B9BED2" transform="translate(364,273)"/>
<path d="M0 0 C0.66 0 1.32 0 2 0 C2 0.99 2 1.98 2 3 C2.66 3 3.32 3 4 3 C4 3.99 4 4.98 4 6 C1.69 6.33 -0.62 6.66 -3 7 C-3.33 6.34 -3.66 5.68 -4 5 C-3.34 5 -2.68 5 -2 5 C-2 4.34 -2 3.68 -2 3 C-1.34 2.34 -0.68 1.68 0 1 C0 0.67 0 0.34 0 0 Z " fill="#324196" transform="translate(242,259)"/>
<path d="M0 0 C0.66 0 1.32 0 2 0 C1.67 1.65 1.34 3.3 1 5 C0.01 5.33 -0.98 5.66 -2 6 C-2 6.66 -2 7.32 -2 8 C-3.98 8 -5.96 8 -8 8 C-8 7.34 -8 6.68 -8 6 C-6.68 6 -5.36 6 -4 6 C-4 5.34 -4 4.68 -4 4 C-2.68 4 -1.36 4 0 4 C0 2.68 0 1.36 0 0 Z " fill="#18ADEB" transform="translate(382,352)"/>
<path d="M0 0 C1.5625 1.6875 1.5625 1.6875 3 4 C2.6875 6.75 2.6875 6.75 2 9 C1.01 8.67 0.02 8.34 -1 8 C-1 6.68 -1 5.36 -1 4 C-1.66 4 -2.32 4 -3 4 C-3.33 4.66 -3.66 5.32 -4 6 C-3.67 4.35 -3.34 2.7 -3 1 C-2.01 0.67 -1.02 0.34 0 0 Z " fill="#243087" transform="translate(201,166)"/>
<path d="M0 0 C1.98 0 3.96 0 6 0 C5.2884375 0.495 5.2884375 0.495 4.5625 1 C2.14208385 4.09813267 2.31801083 7.12026792 2 11 C1.34 11 0.68 11 0 11 C0 7.37 0 3.74 0 0 Z " fill="#5B668A" transform="translate(227,386)"/>
<path d="M0 0 C1.98 0 3.96 0 6 0 C5.2884375 0.495 5.2884375 0.495 4.5625 1 C2.14208385 4.09813267 2.31801083 7.12026792 2 11 C1.34 11 0.68 11 0 11 C0 7.37 0 3.74 0 0 Z " fill="#52649E" transform="translate(334,386)"/>
<path d="M0 0 C2.97069541 2.54631035 4.4775751 5.42230149 6 9 C5.67 9.66 5.34 10.32 5 11 C4.34 10.67 3.68 10.34 3 10 C3 10.66 3 11.32 3 12 C1.68 11.67 0.36 11.34 -1 11 C-0.34 11 0.32 11 1 11 C1 10.01 1 9.02 1 8 C1.66 8 2.32 8 3 8 C2.505 7.05125 2.01 6.1025 1.5 5.125 C0 2 0 2 0 0 Z " fill="#253181" transform="translate(207,248)"/>
<path d="M0 0 C0.33 0.99 0.66 1.98 1 3 C2.32 3 3.64 3 5 3 C5 3.66 5 4.32 5 5 C4.34 5 3.68 5 3 5 C3 6.32 3 7.64 3 9 C2.01 9 1.02 9 0 9 C0 8.01 0 7.02 0 6 C-0.66 6.66 -1.32 7.32 -2 8 C-1.47731534 5.23723823 -0.89130413 2.6739124 0 0 Z " fill="#2A3983" transform="translate(203,153)"/>
<path d="M0 0 C1.2065625 0.0309375 1.2065625 0.0309375 2.4375 0.0625 C2.7675 1.3825 3.0975 2.7025 3.4375 4.0625 C2.4475 4.5575 2.4475 4.5575 1.4375 5.0625 C0.4475 4.7325 -0.5425 4.4025 -1.5625 4.0625 C-1.5625 4.7225 -1.5625 5.3825 -1.5625 6.0625 C-2.2225 6.0625 -2.8825 6.0625 -3.5625 6.0625 C-3.605221 4.39638095 -3.60313832 2.72867115 -3.5625 1.0625 C-2.5625 0.0625 -2.5625 0.0625 0 0 Z " fill="#2E3D94" transform="translate(241.5625,133.9375)"/>
<path d="M0 0 C3.3 0 6.6 0 10 0 C12 4 12 4 12 7 C10.68 7 9.36 7 8 7 C8 5.02 8 3.04 8 1 C5.36 1 2.72 1 0 1 C0 0.67 0 0.34 0 0 Z " fill="#60B4DB" transform="translate(396,341)"/>
<path d="M0 0 C1.32 0.66 2.64 1.32 4 2 C-0.75 5 -0.75 5 -3 5 C-3 5.66 -3 6.32 -3 7 C-4.32 6.67 -5.64 6.34 -7 6 C-4.69 4.02 -2.38 2.04 0 0 Z " fill="#2F3B96" transform="translate(399,259)"/>
<path d="M0 0 C1.32 0.33 2.64 0.66 4 1 C4 1.66 4 2.32 4 3 C5.32 3.66 6.64 4.32 8 5 C3.375 7.125 3.375 7.125 0 6 C0.66 6 1.32 6 2 6 C2 5.01 2 4.02 2 3 C1.34 3 0.68 3 0 3 C0 2.01 0 1.02 0 0 Z " fill="#202D84" transform="translate(244,259)"/>
<path d="M0 0 C1.85625 -0.061875 1.85625 -0.061875 3.75 -0.125 C4.79414063 -0.15980469 4.79414063 -0.15980469 5.859375 -0.1953125 C8 0 8 0 12 2 C8.37 2.66 4.74 3.32 1 4 C0.67 2.68 0.34 1.36 0 0 Z " fill="#EEEEEC" transform="translate(276,90)"/>
<path d="M0 0 C1.98 0.66 3.96 1.32 6 2 C6 2.66 6 3.32 6 4 C5.34 4 4.68 4 4 4 C4 4.66 4 5.32 4 6 C4.66 6.33 5.32 6.66 6 7 C5.01 7.33 4.02 7.66 3 8 C3 7.34 3 6.68 3 6 C1.68 5.34 0.36 4.68 -1 4 C-0.01 4 0.98 4 2 4 C2 3.34 2 2.68 2 2 C1.34 2 0.68 2 0 2 C0 1.34 0 0.68 0 0 Z " fill="#2D3C9D" transform="translate(258,302)"/>
<path d="M0 0 C0.66 0 1.32 0 2 0 C1.67 2.31 1.34 4.62 1 7 C0.01 7.33 -0.98 7.66 -2 8 C-2.625 6.1875 -2.625 6.1875 -3 4 C-1 1 -1 1 0 0 Z " fill="#343E9A" transform="translate(198,170)"/>
<path d="M0 0 C0.66 0 1.32 0 2 0 C2 1.32 2 2.64 2 4 C4.64 4 7.28 4 10 4 C10 4.33 10 4.66 10 5 C6.04 5 2.08 5 -2 5 C-1 1 -1 1 0 0 Z " fill="#F0F9F8" transform="translate(238,350)"/>
<path d="M0 0 C2.31 0 4.62 0 7 0 C7 2.31 7 4.62 7 7 C6.67 7 6.34 7 6 7 C6 5.35 6 3.7 6 2 C5.34 2 4.68 2 4 2 C4 3.32 4 4.64 4 6 C3.34 6 2.68 6 2 6 C2 4.35 2 2.7 2 1 C1.34 0.67 0.68 0.34 0 0 Z " fill="#2C93CF" transform="translate(278,240)"/>
<path d="M0 0 C1.65 0.33 3.3 0.66 5 1 C4.34 2.32 3.68 3.64 3 5 C1.68 4.67 0.36 4.34 -1 4 C-0.67 2.68 -0.34 1.36 0 0 Z " fill="#E5E7ED" transform="translate(379,391)"/>
<path d="M0 0 C0.12375 0.639375 0.2475 1.27875 0.375 1.9375 C0.684375 2.9584375 0.684375 2.9584375 1 4 C1.66 4.33 2.32 4.66 3 5 C1.68 5.33 0.36 5.66 -1 6 C-1 6.66 -1 7.32 -1 8 C-2.32 7.67 -3.64 7.34 -5 7 C-4.54625 6.5875 -4.0925 6.175 -3.625 5.75 C-1.94049626 3.93591905 -1.00734029 2.24714373 0 0 Z " fill="#2B359D" transform="translate(359,302)"/>
<path d="M0 0 C2.64 0.33 5.28 0.66 8 1 C8.33 2.65 8.66 4.3 9 6 C5.06326356 4.68775452 2.77280706 3.08089673 0 0 Z " fill="#243589" transform="translate(237,295)"/>
<path d="M0 0 C0.66 0 1.32 0 2 0 C2 1.98 2 3.96 2 6 C-0.35438733 7.42944945 -1.48032433 8.08661261 -4.25 7.625 C-4.8275 7.41875 -5.405 7.2125 -6 7 C-4.35 6.67 -2.7 6.34 -1 6 C-0.67 4.02 -0.34 2.04 0 0 Z " fill="#6E7596" transform="translate(317,389)"/>
<path d="M0 0 C1.65 0 3.3 0 5 0 C5 0.66 5 1.32 5 2 C5.66 2 6.32 2 7 2 C7 2.66 7 3.32 7 4 C5.02 4 3.04 4 1 4 C0.67 2.68 0.34 1.36 0 0 Z " fill="#2EA6E3" transform="translate(431,342)"/>
<path d="M0 0 C0 0.66 0 1.32 0 2 C-4.455 2.495 -4.455 2.495 -9 3 C-9.33 2.34 -9.66 1.68 -10 1 C-6.61981469 -0.04005702 -3.5219721 -0.08004482 0 0 Z " fill="#222F8B" transform="translate(340,313)"/>
<path d="M0 0 C1.134375 0.020625 2.26875 0.04125 3.4375 0.0625 C3.4375 0.3925 3.4375 0.7225 3.4375 1.0625 C1.7875 1.0625 0.1375 1.0625 -1.5625 1.0625 C-1.8925 1.7225 -2.2225 2.3825 -2.5625 3.0625 C-3.2225 2.4025 -3.8825 1.7425 -4.5625 1.0625 C-3.5625 0.0625 -3.5625 0.0625 0 0 Z M-6.5625 4.0625 C-5.5725 4.0625 -4.5825 4.0625 -3.5625 4.0625 C-3.8925 5.0525 -4.2225 6.0425 -4.5625 7.0625 C-5.5525 7.0625 -6.5425 7.0625 -7.5625 7.0625 C-7.2325 6.0725 -6.9025 5.0825 -6.5625 4.0625 Z " fill="#222F8D" transform="translate(405.5625,257.9375)"/>
<path d="M0 0 C-1.4317616 0.69937202 -2.87067032 1.38412718 -4.3125 2.0625 C-5.51326172 2.63677734 -5.51326172 2.63677734 -6.73828125 3.22265625 C-9 4 -9 4 -12 3 C-11 1 -11 1 -9.2578125 0.33203125 C-8.55398438 0.16058594 -7.85015625 -0.01085937 -7.125 -0.1875 C-6.42632812 -0.36667969 -5.72765625 -0.54585938 -5.0078125 -0.73046875 C-3 -1 -3 -1 0 0 Z " fill="#232782" transform="translate(265,259)"/>
<path d="M0 0 C0.99 0.33 1.98 0.66 3 1 C3.66015625 3.03125 3.66015625 3.03125 4.0625 5.5 C4.42516952 7.91007019 4.42516952 7.91007019 5 10 C5.66 10.33 6.32 10.66 7 11 C6.01 11 5.02 11 4 11 C3.32880451 9.5437455 2.66318193 8.08492133 2 6.625 C1.62875 5.81289062 1.2575 5.00078125 0.875 4.1640625 C0 2 0 2 0 0 Z " fill="#222C82" transform="translate(223,239)"/>
<path d="M0 0 C2.97 0 5.94 0 9 0 C8.34 1.32 7.68 2.64 7 4 C4.69 3.34 2.38 2.68 0 2 C0 1.34 0 0.68 0 0 Z " fill="#EEF1F5" transform="translate(258,392)"/>
<path d="M0 0 C0.33 0.99 0.66 1.98 1 3 C1.99 3.33 2.98 3.66 4 4 C3.01 4 2.02 4 1 4 C1.185625 5.918125 1.185625 5.918125 1.375 7.875 C1.44460938 8.59429687 1.51421875 9.31359375 1.5859375 10.0546875 C1.86374749 12.22668245 1.86374749 12.22668245 4 14 C2.68 13.67 1.36 13.34 0 13 C-0.19551338 11.39679026 -0.38111983 9.79237014 -0.5625 8.1875 C-0.71912109 6.84751953 -0.71912109 6.84751953 -0.87890625 5.48046875 C-1 3 -1 3 0 0 Z " fill="#162759" transform="translate(395,383)"/>
<path d="M0 0 C-2.55068845 2.35448165 -3.71017358 2.98327924 -7.25 3.1875 C-8.1575 3.125625 -9.065 3.06375 -10 3 C-10 2.34 -10 1.68 -10 1 C-6.78548731 -0.60725635 -3.56387464 -0.05748185 0 0 Z " fill="#E1F4F6" transform="translate(284,349)"/>
<path d="M0 0 C0.66 0.33 1.32 0.66 2 1 C1.67 1.99 1.34 2.98 1 4 C-1.5625 5.1875 -1.5625 5.1875 -4 6 C-4.66 5.34 -5.32 4.68 -6 4 C-3.94766315 1.7522025 -2.99332739 0.9977758 0 0 Z " fill="#303D98" transform="translate(279,308)"/>
<path d="M0 0 C0 0.66 0 1.32 0 2 C2.64 2 5.28 2 8 2 C7.67 2.66 7.34 3.32 7 4 C2.71 3.34 -1.58 2.68 -6 2 C-2 0 -2 0 0 0 Z " fill="#1E2384" transform="translate(312,254)"/>
<path d="M0 0 C1.32 0 2.64 0 4 0 C4 0.66 4 1.32 4 2 C-1.75 5 -1.75 5 -4 5 C-4 4.01 -4 3.02 -4 2 C-2.68 2 -1.36 2 0 2 C0 1.34 0 0.68 0 0 Z " fill="#222F92" transform="translate(372,278)"/>
<path d="M0 0 C0.66 0.33 1.32 0.66 2 1 C1.39816251 3.02045442 0.72693904 5.02111039 0 7 C-0.99 7.495 -0.99 7.495 -2 8 C-2.33 6.35 -2.66 4.7 -3 3 C-2.01 2.67 -1.02 2.34 0 2 C0 1.34 0 0.68 0 0 Z " fill="#2D3A96" transform="translate(236,254)"/>
<path d="M0 0 C-1.33333333 2.66666667 -2.66666667 5.33333333 -4 8 C-4.33 7.01 -4.66 6.02 -5 5 C-5.66 4.67 -6.32 4.34 -7 4 C-2.25 0 -2.25 0 0 0 Z " fill="#384196" transform="translate(267,97)"/>
<path d="M0 0 C1.98 0 3.96 0 6 0 C6 0.99 6 1.98 6 3 C3.69 3 1.38 3 -1 3 C-0.67 2.01 -0.34 1.02 0 0 Z " fill="#E5E7F5" transform="translate(366,388)"/>
<path d="M0 0 C0.99 0 1.98 0 3 0 C3.33 2.31 3.66 4.62 4 7 C2.68 6.34 1.36 5.68 0 5 C0 3.35 0 1.7 0 0 Z " fill="#2A2D7D" transform="translate(301,273)"/>
<path d="M0 0 C2.5 2.3125 2.5 2.3125 5 5 C5 5.99 5 6.98 5 8 C3.68 7.67 2.36 7.34 1 7 C1.33 6.01 1.66 5.02 2 4 C1.12516085 1.83284443 1.12516085 1.83284443 0 0 Z " fill="#263684" transform="translate(219,268)"/>
<path d="M0 0 C1.98 0 3.96 0 6 0 C6.33 1.65 6.66 3.3 7 5 C6.01 5 5.02 5 4 5 C4 4.01 4 3.02 4 2 C2.68 2.33 1.36 2.66 0 3 C0 2.01 0 1.02 0 0 Z " fill="#364292" transform="translate(216,133)"/>
<path d="M0 0 C1.65 0 3.3 0 5 0 C4.67 1.32 4.34 2.64 4 4 C3.01 4 2.02 4 1 4 C0.67 2.68 0.34 1.36 0 0 Z " fill="#35AADD" transform="translate(193,354)"/>
<path d="M0 0 C0.66 0.33 1.32 0.66 2 1 C1.34 1.66 0.68 2.32 0 3 C0.66 3.66 1.32 4.32 2 5 C-0.31 5.33 -2.62 5.66 -5 6 C-4.01 5.67 -3.02 5.34 -2 5 C-2 4.34 -2 3.68 -2 3 C-2.66 2.67 -3.32 2.34 -4 2 C-2.125 0.9375 -2.125 0.9375 0 0 Z " fill="#202D7F" transform="translate(346,308)"/>
<path d="M0 0 C2.475 0.495 2.475 0.495 5 1 C5 2.32 5 3.64 5 5 C5.66 5.33 6.32 5.66 7 6 C6.01 6.33 5.02 6.66 4 7 C3.67 5.68 3.34 4.36 3 3 C2.34 3 1.68 3 1 3 C0.67 2.01 0.34 1.02 0 0 Z " fill="#36408F" transform="translate(375,271)"/>
<path d="M0 0 C0.99 0 1.98 0 3 0 C1.74464015 3.76607955 0.47116415 4.26441793 -3 6 C-3.99 6 -4.98 6 -6 6 C-4.71034824 4.62437146 -3.37310707 3.29233607 -2 2 C-1.34 2 -0.68 2 0 2 C0 1.34 0 0.68 0 0 Z " fill="#3B368A" transform="translate(229,119)"/>
<path d="M0 0 C0.66 0 1.32 0 2 0 C2 0.99 2 1.98 2 3 C2.99 3.33 3.98 3.66 5 4 C3.68 4 2.36 4 1 4 C1 5.65 1 7.3 1 9 C0.67 9 0.34 9 0 9 C-1.125 3.375 -1.125 3.375 0 0 Z " fill="#3C4975" transform="translate(249,383)"/>
<path d="M0 0 C1.9375 0.6875 1.9375 0.6875 2.9375 2.6875 C0.6275 3.0175 -1.6825 3.3475 -4.0625 3.6875 C-4.0625 2.6975 -4.0625 1.7075 -4.0625 0.6875 C-2.0625 -0.3125 -2.0625 -0.3125 0 0 Z " fill="#EEEFF7" transform="translate(381.0625,387.3125)"/>
<path d="M0 0 C1.65 0 3.3 0 5 0 C5 0.99 5 1.98 5 3 C3.02 3 1.04 3 -1 3 C-0.67 2.01 -0.34 1.02 0 0 Z " fill="#ECEDF6" transform="translate(259,388)"/>
<path d="M0 0 C1.98 0 3.96 0 6 0 C6 0.66 6 1.32 6 2 C4.68 2 3.36 2 2 2 C1.67 2.99 1.34 3.98 1 5 C0.67 5 0.34 5 0 5 C0 3.35 0 1.7 0 0 Z " fill="#19AAF0" transform="translate(398,342)"/>
<path d="M0 0 C0 2.83967231 -0.40267181 5.23735711 -1 8 C-2.32 7.67 -3.64 7.34 -5 7 C-3.35 4.69 -1.7 2.38 0 0 Z " fill="#4DB1E2" transform="translate(209,334)"/>
<path d="M0 0 C2.97 0.495 2.97 0.495 6 1 C3.08235 2.9451 1.37462715 3.45276317 -2 4 C-1.34 2.68 -0.68 1.36 0 0 Z " fill="#1D2B86" transform="translate(270,100)"/>
</svg>
